<?xml version="1.0" encoding="UTF-8" standalone="no"?>
<svg
  xmlns="http://www.w3.org/2000/svg"
  xmlns:xlink="http://www.w3.org/1999/xlink"
  viewBox="-50 -58 100 116" >
  <title>Koch's snowflake bicolor</title>
  <desc>fractal, triangle, geometric, hexagon, snowflake, grey</desc>
  <defs>
<path d="M-50 28.8675135 h100 l-50 -86.6 z" id="tri" />
<g id="l1">
<use xlink:href="#tri" transform="translate(33.333333,-19.245)  scale(0.333333,-0.3333333)" fill="#888" />
<use xlink:href="#tri" transform="translate(-33.333333,-19.245)  scale(0.333333,-0.3333333)" fill="#888" />
<use xlink:href="#tri" transform="translate(0,38.49)  scale(0.333333,-0.3333333)" fill="#888" />
<use xlink:href="#tri" transform="translate(0,-38.49) scale(.33333)" fill="#aaa" />
<use xlink:href="#tri" transform="translate(-33.333333,19.245) scale(.33333)" fill="#aaa" />
<use xlink:href="#tri" transform="translate(33.333333,19.245) scale(.33333)" fill="#aaa"/>
</g>
<g id="l2">
<use xlink:href="#l1" transform="translate(33.333333,-19.245)  scale(0.333333,-0.3333333)" />
<use xlink:href="#l1" transform="translate(-33.333333,-19.245)  scale(0.333333,-0.3333333)" />
<use xlink:href="#l1" transform="translate(0,38.49)  scale(0.333333,-0.3333333)" />
<use xlink:href="#l1" transform="translate(0,-38.49) scale(.33333)" />
<use xlink:href="#l1" transform="translate(-33.333333,19.245) scale(.33333)" />
<use xlink:href="#l1" transform="translate(33.333333,19.245) scale(.33333)" />
</g>
<g id="l3">
<use xlink:href="#l2" transform="translate(33.333333,-19.245)  scale(0.333333,-0.3333333)" />
<use xlink:href="#l2" transform="translate(-33.333333,-19.245)  scale(0.333333,-0.3333333)" />
<use xlink:href="#l2" transform="translate(0,38.49)  scale(0.333333,-0.3333333)" />
<use xlink:href="#l2" transform="translate(0,-38.49) scale(.33333)" />
<use xlink:href="#l2" transform="translate(-33.333333,19.245) scale(.33333)" />
<use xlink:href="#l2" transform="translate(33.333333,19.245) scale(.33333)" />
</g>
<g id="l4">
<use xlink:href="#l3" transform="translate(33.333333,-19.245)  scale(0.333333,-0.3333333)" />
<use xlink:href="#l3" transform="translate(-33.333333,-19.245)  scale(0.333333,-0.3333333)" />
<use xlink:href="#l3" transform="translate(0,38.49)  scale(0.333333,-0.3333333)" />
<use xlink:href="#l3" transform="translate(0,-38.49) scale(.33333)" />
<use xlink:href="#l3" transform="translate(-33.333333,19.245) scale(.33333)" />
<use xlink:href="#l3" transform="translate(33.333333,19.245) scale(.33333)" />
</g>
<g id="l5">
<use xlink:href="#l4" transform="translate(33.333333,-19.245)  scale(0.333333,-0.3333333)" />
<use xlink:href="#l4" transform="translate(-33.333333,-19.245)  scale(0.333333,-0.3333333)" />
<use xlink:href="#l4" transform="translate(0,38.49)  scale(0.333333,-0.3333333)" />
<use xlink:href="#l4" transform="translate(0,-38.49) scale(.33333)" />
<use xlink:href="#l4" transform="translate(-33.333333,19.245) scale(.33333)" />
<use xlink:href="#l4" transform="translate(33.333333,19.245) scale(.33333)" />
</g>
<g id="l6">
<use xlink:href="#l5" transform="translate(33.333333,-19.245)  scale(0.333333,-0.3333333)" />
<use xlink:href="#l5" transform="translate(-33.333333,-19.245)  scale(0.333333,-0.3333333)" />
<use xlink:href="#l5" transform="translate(0,38.49)  scale(0.333333,-0.3333333)" />
<use xlink:href="#l5" transform="translate(0,-38.49) scale(.33333)" />
<use xlink:href="#l5" transform="translate(-33.333333,19.245) scale(.33333)" />
<use xlink:href="#l5" transform="translate(33.333333,19.245) scale(.33333)" />
</g>

</defs>
<use xlink:href="#tri" fill="#888" />
<use xlink:href="#l1" />
<use xlink:href="#l2" />
<use xlink:href="#l3" />
<use xlink:href="#l4" />
<use xlink:href="#l5" />
<use xlink:href="#l6" />

</svg>
